<?xml version="1.0" encoding="utf-8"?>
<!-- Generator: Adobe Illustrator 20.1.0, SVG Export Plug-In . SVG Version: 6.00 Build 0)  -->
<svg version="1.1" id="header" xmlns="http://www.w3.org/2000/svg" xmlns:xlink="http://www.w3.org/1999/xlink" x="0px" y="0px"
	 width="47.6" height="36.4" viewBox="0 0 47.6 36.4" style="enable-background:new 0 0 47.6 36.4;" xml:space="preserve">
<style type="text/css">
	.st0{fill:#000067;}
</style>
<g>
	<path class="st0" d="M47.6,0L34.1,5.5c0.9,1.1,1.5,2.4,1.9,3.7L47.6,0"/>
	<path class="st0" d="M13.5,3.1l1.9,1.8c-2.4,2.5-3.5,5.8-3.5,9l2.4-1l0.2-0.1c0.2-2.2,1.1-4.4,2.7-6.1l1.9,1.9l0.2-6"/>
	<path class="st0" d="M19.5,22.3L17.3,24c3.2,2.3,7.3,2.8,10.9,1.6l0-2.9C25.4,24,22.2,23.8,19.5,22.3z"/>
	<path class="st0" d="M19.3,21.8l13.5-10.4c-0.4-1.6-1.1-3-2.2-4.3l-15.8,6.3l-0.2,0.1l-2.2,0.9L12,14.5L0,19.2l10.7,0.2L0.5,36.4
		l16.7-12.9l0.1-0.1L19.3,21.8L19.3,21.8z"/>
	<path class="st0" d="M20.1,1.7l0,2.9c3.5-1.5,7.7-0.9,10.6,2C30.8,6.7,31,6.8,31.1,7c1.1,1.3,1.9,2.8,2.3,4.4
		c0.8,3.2-0.1,6.7-2.5,9.2L29,18.7l-0.2,6l5.9-0.4l-1.9-1.8c3.3-3.5,4.3-8.5,2.8-12.8c-0.4-1.3-1.1-2.5-1.9-3.7
		C33.3,5.5,33,5,32.5,4.6C29.1,1.2,24.3,0.3,20.1,1.7"/>
</g>
</svg>
